<svg width="124" height="38" viewBox="0 0 124 38" fill="none" xmlns="http://www.w3.org/2000/svg">
<g clip-path="url(#clip0_0_5)">
<path d="M44 6H0V38H44V6Z" fill="#EAF3B2"/>
<path d="M50 0H6V32H50V0Z" fill="#3D568F"/>
<path d="M119.512 22.7134C118.408 22.7134 117.457 22.504 116.659 22.0852C115.862 21.6664 115.243 21.0719 114.804 20.3018C114.379 19.5317 114.166 18.6197 114.166 17.5658C114.166 16.539 114.372 15.6406 114.784 14.8705C115.21 14.1004 115.788 13.4991 116.52 13.0667C117.265 12.6209 118.109 12.3979 119.053 12.3979C119.984 12.3979 120.782 12.6006 121.447 13.0059C122.112 13.4114 122.624 13.9855 122.983 14.7286C123.355 15.4717 123.542 16.3566 123.542 17.3834V18.1334H116.181V16.6742H121.786L121.467 16.9781C121.467 16.0594 121.267 15.3569 120.869 14.8705C120.47 14.3706 119.898 14.1206 119.153 14.1206C118.594 14.1206 118.116 14.2557 117.717 14.5259C117.331 14.7826 117.032 15.1542 116.819 15.6405C116.62 16.1134 116.52 16.6809 116.52 17.3429V17.4848C116.52 18.228 116.633 18.8426 116.859 19.3291C117.085 19.8155 117.424 20.1803 117.876 20.4235C118.328 20.6667 118.887 20.7882 119.552 20.7882C120.097 20.7882 120.642 20.7071 121.188 20.545C121.733 20.3693 122.232 20.0992 122.684 19.7344L123.382 21.4368C122.917 21.8286 122.331 22.1392 121.627 22.3689C120.922 22.5986 120.217 22.7134 119.512 22.7134Z" fill="#3D568F"/>
<path d="M109.799 22.7134C108.775 22.7134 107.884 22.504 107.126 22.0852C106.368 21.6529 105.783 21.0449 105.37 20.2612C104.958 19.4776 104.752 18.5589 104.752 17.505C104.752 16.4512 104.958 15.546 105.37 14.7894C105.783 14.0192 106.368 13.4315 107.126 13.0262C107.884 12.6074 108.775 12.3979 109.799 12.3979C110.424 12.3979 111.042 12.4993 111.654 12.7019C112.266 12.9046 112.771 13.1883 113.17 13.5531L112.432 15.3163C112.086 15.0055 111.694 14.7692 111.255 14.607C110.83 14.4448 110.417 14.3638 110.018 14.3638C109.154 14.3638 108.482 14.6407 108.004 15.1947C107.538 15.7351 107.305 16.512 107.305 17.5253C107.305 18.5251 107.538 19.3155 108.004 19.8965C108.482 20.464 109.154 20.7477 110.018 20.7477C110.404 20.7477 110.816 20.6666 111.255 20.5044C111.694 20.3424 112.086 20.0991 112.432 19.7748L113.17 21.5583C112.771 21.9096 112.259 22.1933 111.634 22.4095C111.022 22.6122 110.411 22.7134 109.799 22.7134Z" fill="#3D568F"/>
<path d="M93.4224 22.5108V12.6006H95.856V14.5868H95.6366C95.9292 13.8707 96.3813 13.3302 96.9931 12.9654C97.6181 12.5871 98.323 12.3979 99.1076 12.3979C99.8922 12.3979 100.537 12.5466 101.043 12.8438C101.548 13.141 101.927 13.5937 102.18 14.2016C102.432 14.7961 102.559 15.5528 102.559 16.4715V22.5108H100.065V16.5931C100.065 16.0796 99.9986 15.6608 99.8656 15.3365C99.7459 15.0123 99.5531 14.7759 99.2871 14.6272C99.0344 14.4651 98.7086 14.384 98.3097 14.384C97.8309 14.384 97.412 14.4921 97.0529 14.7083C96.6939 14.911 96.4146 15.2083 96.2151 15.6C96.0156 15.9783 95.9159 16.4242 95.9159 16.9376V22.5108H93.4224Z" fill="#3D568F"/>
<path d="M85.5254 22.7134C84.8206 22.7134 84.1889 22.5783 83.6303 22.3081C83.0851 22.0244 82.6529 21.6462 82.3337 21.1733C82.0278 20.7003 81.8749 20.1668 81.8749 19.5723C81.8749 18.8427 82.0611 18.2684 82.4334 17.8496C82.8058 17.4172 83.4109 17.1065 84.2487 16.9173C85.0865 16.7282 86.2103 16.6336 87.6199 16.6336H88.6174V18.0928H87.6399C87.0149 18.0928 86.4895 18.1198 86.064 18.1738C85.6384 18.2144 85.2927 18.2887 85.0267 18.3967C84.774 18.4913 84.5878 18.6264 84.4681 18.8021C84.3617 18.9777 84.3085 19.1939 84.3085 19.4506C84.3085 19.8964 84.4615 20.2612 84.7674 20.545C85.0732 20.8287 85.4988 20.9706 86.044 20.9706C86.4829 20.9706 86.8686 20.8692 87.201 20.6666C87.5468 20.4504 87.8194 20.1599 88.0189 19.7951C88.2184 19.4303 88.3181 19.0116 88.3181 18.5387V16.208C88.3181 15.5325 88.1718 15.0461 87.8793 14.7488C87.5867 14.4516 87.0946 14.3031 86.4031 14.3031C85.8579 14.3031 85.2993 14.3908 84.7275 14.5664C84.1556 14.7286 83.5771 14.9853 82.992 15.3365L82.2738 13.6139C82.6196 13.3707 83.0252 13.1613 83.4907 12.9857C83.9694 12.7965 84.4681 12.6547 84.9868 12.5601C85.5187 12.452 86.0174 12.3979 86.4829 12.3979C87.4404 12.3979 88.225 12.5466 88.8368 12.8438C89.4618 13.141 89.9273 13.5937 90.2331 14.2016C90.539 14.7961 90.692 15.5662 90.692 16.512V22.5108H88.358V20.4031H88.5176C88.4245 20.876 88.2383 21.2881 87.9591 21.6393C87.6931 21.9771 87.354 22.2407 86.9417 22.4298C86.5294 22.619 86.0573 22.7134 85.5254 22.7134Z" fill="#3D568F"/>
<path d="M70.4454 22.5108V12.6006H72.879V14.5868H72.6596C72.9522 13.8707 73.4043 13.3302 74.0161 12.9654C74.6411 12.5871 75.346 12.3979 76.1306 12.3979C76.9152 12.3979 77.5602 12.5466 78.0656 12.8438C78.5709 13.141 78.9499 13.5937 79.2026 14.2016C79.4553 14.7961 79.5816 15.5528 79.5816 16.4715V22.5108H77.0881V16.5931C77.0881 16.0796 77.0216 15.6608 76.8886 15.3365C76.7689 15.0123 76.5761 14.7759 76.3101 14.6272C76.0575 14.4651 75.7316 14.384 75.3327 14.384C74.8539 14.384 74.435 14.4921 74.0759 14.7083C73.7169 14.911 73.4376 15.2083 73.2381 15.6C73.0386 15.9783 72.9389 16.4242 72.9389 16.9376V22.5108H70.4454Z" fill="#3D568F"/>
<path d="M65.0018 10.4725V8H67.7946V10.4725H65.0018ZM65.1614 22.5106V12.6004H67.6549V22.5106H65.1614Z" fill="#3D568F"/>
<path d="M54 22.5108V8.22314H63.1961V10.2903H56.5534V14.3233H62.7772V16.3904H56.5534V22.5108H54Z" fill="#3D568F"/>
<path d="M27.14 22.5108V8.22314H29.7133L34.8 17.6267H34.1218L39.1886 8.22314H41.722V22.5108H38.9094V13.0262H39.3482L35.2788 20.3626H33.5433L29.4539 13.006H29.9327V22.5108H27.14Z" fill="white"/>
<path d="M17.6479 22.5108V10.8172H13V8.22314H25.3878V10.8172H20.7399V22.5108H17.6479Z" fill="white"/>
</g>
<defs>
<clipPath id="clip0_0_5">
<rect width="124" height="38" fill="white"/>
</clipPath>
</defs>
</svg>
